<?xml version="1.0" encoding="iso-8859-1"?>
<!-- Generator: Adobe Illustrator 19.0.0, SVG Export Plug-In . SVG Version: 6.00 Build 0)  -->
<svg version="1.1" id="Layer_1" xmlns="http://www.w3.org/2000/svg" xmlns:xlink="http://www.w3.org/1999/xlink" x="0px" y="0px"
	 viewBox="0 0 512.002 512.002" style="enable-background:new 0 0 512.002 512.002;" xml:space="preserve">
<path style="fill:#5286FA;" d="M511.554,112.736c-1.837-9.235-9.055-16.452-18.288-18.29l-134.491-26.75
	c-12.604-2.5-24.862,5.681-27.373,18.288l-26.753,134.495c-1.837,9.233,2.07,18.665,9.899,23.895
	c3.914,2.615,8.423,3.923,12.933,3.923c4.508,0,9.018-1.308,12.931-3.923l46.718-31.217c4.19,49.592-13.44,99.25-49.357,135.164
	c-33.273,33.273-76.964,49.907-120.67,49.902c-43.693-0.003-87.402-16.639-120.667-49.902c-66.538-66.536-66.538-174.801,0-241.337
	c9.089-9.091,9.089-23.828,0-32.919c-9.089-9.091-23.828-9.091-32.919,0c-84.689,84.688-84.689,222.487,0,307.175
	c42.348,42.349,97.957,63.522,153.586,63.516c55.616-0.005,111.249-21.178,153.589-63.515
	c51.688-51.687,73.623-125.73,59.289-196.717l71.676-47.892C509.484,131.401,513.391,121.97,511.554,112.736z"/>
<g>
</g>
<g>
</g>
<g>
</g>
<g>
</g>
<g>
</g>
<g>
</g>
<g>
</g>
<g>
</g>
<g>
</g>
<g>
</g>
<g>
</g>
<g>
</g>
<g>
</g>
<g>
</g>
<g>
</g>
</svg>
