<?xml version="1.0" encoding="iso-8859-1"?>
<!-- Generator: Adobe Illustrator 19.0.0, SVG Export Plug-In . SVG Version: 6.00 Build 0)  -->
<svg version="1.1" id="Layer_1" xmlns="http://www.w3.org/2000/svg" xmlns:xlink="http://www.w3.org/1999/xlink" x="0px" y="0px"
	 viewBox="0 0 511.999 511.999" style="enable-background:new 0 0 511.999 511.999;" xml:space="preserve">
<path style="fill:#4ACFD9;" d="M407.783,142.563c-10.457,0-20.521,1.675-29.946,4.76c1.41-7.069,2.155-14.379,2.155-21.862
	c0-61.395-49.77-111.165-111.165-111.165s-111.165,49.77-111.165,111.165c0,3.477,0.168,6.915,0.48,10.311
	c-13.729-6.608-29.119-10.311-45.373-10.311c-57.853,0-104.752,46.899-104.752,104.752c0,54.244,41.23,98.858,94.063,104.213v0.539
	h303.566v-0.027c0.711,0.016,1.423,0.027,2.138,0.027c53.13,0,96.2-43.07,96.2-96.2S460.913,142.563,407.783,142.563z"/>
<path style="fill:#0295AA;" d="M157.662,125.461c0,3.477,0.168,6.915,0.48,10.311c-13.729-6.608-29.119-10.311-45.373-10.311
	c-57.853,0-104.752,46.899-104.752,104.752c0,54.244,41.23,98.858,94.063,104.213v0.539H256V15.037
	C200.648,21.398,157.662,68.405,157.662,125.461z"/>
<g>
	<path style="fill:#FFFFFF;" d="M347.925,133.478c-4.427,0-8.017-3.589-8.017-8.017c0-39.195-31.887-71.081-71.081-71.081
		c-4.427,0-8.017-3.589-8.017-8.017s3.589-8.017,8.017-8.017c48.035,0,87.115,39.08,87.115,87.115
		C355.942,129.888,352.352,133.478,347.925,133.478z"/>
	<path style="fill:#FFFFFF;" d="M471.917,246.78c-4.427,0-8.017-3.589-8.017-8.017c0-30.943-25.174-56.117-56.117-56.117
		c-4.427,0-8.017-3.589-8.017-8.017s3.589-8.017,8.017-8.017c39.784,0,72.15,32.366,72.15,72.15
		C479.933,243.191,476.344,246.78,471.917,246.78z"/>
</g>
<polygon style="fill:#FF8C29;" points="409.921,262.546 255.466,138.288 101.545,262.546 182.781,262.546 182.781,437.845 
	328.15,437.845 328.15,262.546 "/>
<polygon style="fill:#FD6A33;" points="255.466,138.288 101.545,262.546 182.781,262.546 182.781,437.845 256,437.845 256,138.717 
	"/>
<g>
	<path style="fill:#F0353D;" d="M328.15,475.791h-145.37c-4.427,0-8.017-3.589-8.017-8.017c0-4.427,3.589-8.017,8.017-8.017h145.37
		c4.427,0,8.017,3.589,8.017,8.017C336.167,472.201,332.579,475.791,328.15,475.791z"/>
	<path style="fill:#F0353D;" d="M328.15,505.72h-145.37c-4.427,0-8.017-3.589-8.017-8.017c0-4.427,3.589-8.017,8.017-8.017h145.37
		c4.427,0,8.017,3.589,8.017,8.017C336.167,502.13,332.579,505.72,328.15,505.72z"/>
</g>
<path d="M407.783,134.546c-6.845,0-13.631,0.664-20.287,1.98c0.34-3.678,0.512-7.373,0.512-11.065
	c0-65.717-53.465-119.182-119.182-119.182c-65.099,0-118.176,52.462-119.168,117.33c-11.8-4.096-24.16-6.165-36.891-6.165
	C50.588,117.444,0,168.032,0,230.212c0,28.114,10.407,55.046,29.304,75.833c18.105,19.916,42.533,32.635,69.055,36.023
	c1.112,0.584,2.377,0.913,3.72,0.913h72.685v94.864c0,4.427,3.589,8.017,8.017,8.017h145.37c4.427,0,8.017-3.589,8.017-8.017
	v-94.864h69.478c0.169,0,0.336-0.005,0.502-0.016c0.544,0.01,1.089,0.016,1.635,0.016c57.466,0,104.217-46.751,104.217-104.217
	S465.249,134.546,407.783,134.546z M320.134,429.828H190.798v-94.864v-72.418c0-4.427-3.589-8.017-8.017-8.017h-58.543
	l131.237-105.947L387.166,254.53H328.15c-4.427,0-8.017,3.589-8.017,8.017v72.418V429.828z M407.783,326.947
	c-0.656,0-1.309-0.011-1.961-0.025c-0.275-0.007-0.553,0.002-0.827,0.025h-68.827v-56.384h73.754c3.4,0,6.432-2.145,7.561-5.353
	c1.13-3.208,0.113-6.779-2.536-8.91L260.492,132.041c-2.938-2.363-7.126-2.36-10.06,0.009L96.51,256.308
	c-2.644,2.135-3.656,5.704-2.524,8.908c1.132,3.205,4.161,5.347,7.559,5.347h73.219v56.384h-69.792
	c-0.656-0.253-1.355-0.424-2.085-0.498c-49.514-5.018-86.854-46.391-86.854-96.237c0-53.34,43.395-96.735,96.735-96.735
	c14.68,0,28.776,3.202,41.897,9.517c2.602,1.253,5.676,1.009,8.049-0.638c2.372-1.647,3.675-4.443,3.411-7.319
	c-0.296-3.224-0.447-6.445-0.447-9.577c0-56.876,46.272-103.148,103.148-103.148s103.148,46.272,103.148,103.148
	c0,6.812-0.672,13.64-2,20.294c-0.558,2.794,0.41,5.675,2.542,7.565c2.131,1.891,5.105,2.509,7.814,1.623
	c8.843-2.895,18.079-4.362,27.452-4.362c48.625,0,88.184,39.559,88.184,88.184S456.408,326.947,407.783,326.947z"/>
<g>
</g>
<g>
</g>
<g>
</g>
<g>
</g>
<g>
</g>
<g>
</g>
<g>
</g>
<g>
</g>
<g>
</g>
<g>
</g>
<g>
</g>
<g>
</g>
<g>
</g>
<g>
</g>
<g>
</g>
</svg>
